<svg id="Layer_1" viewBox="0 0 24 24" fill="currentColor" xmlns="http://www.w3.org/2000/svg" data-name="Layer 1">
    <path
        d="m8.5 17c-.837 0-1.702-.028-2.5-.078v-4.931c-.025-1.573-.936-2.481-2.502-2.491-1.583.01-2.47.895-2.498 2.5v3.121c0 1.131.747 2.121 1.817 2.407.975.26 3.181.453 5.343.471.762 2.039.84 4.49.84 4.516.007.276.24.495.514.485.276-.007.493-.237.486-.513-.003-.118-.091-2.915-1.039-5.179-.078-.186-.26-.307-.461-.307zm-3.5-.154c-.824-.076-1.511-.174-1.925-.285-.633-.169-1.075-.762-1.075-1.441v-3.112c.019-1.051.468-1.502 1.498-1.509 1.009.006 1.486.486 1.504 1.5v4.846zm1.79 3.572c.181 1.161.208 2.031.209 2.068.008.276-.209.506-.486.514-.274.009-.506-.209-.514-.485 0-.007-.02-.646-.139-1.537-2.332-.139-4.452-.976-4.546-1.013-.257-.102-.381-.393-.279-.649s.393-.382.649-.279c.023.009 2.315.911 4.623.959.242.005.446.183.483.423zm-3.287-12.418c1.264-.007 1.973-.714 1.997-2.009-.022-1.239-.768-1.983-2.003-1.991-1.246.008-1.974.733-1.997 1.991v.018c.023 1.276.732 1.983 2.003 1.991zm-.006-3c.691.004.991.306 1.003.991-.014.731-.285 1.005-.997 1.009-.706-.004-.988-.285-1.003-1 .015-.715.297-.996.997-1zm16.999 4.5c-1.56.01-2.47.918-2.497 2.5v4.922c-.797.05-1.661.078-2.499.078-.202 0-.383.121-.461.307-.948 2.265-1.035 5.061-1.039 5.179-.007.276.21.506.486.513.274.009.507-.21.514-.485 0-.026.079-2.477.84-4.516 2.162-.019 4.368-.211 5.343-.471 1.07-.286 1.817-1.275 1.817-2.407v-3.129c-.028-1.597-.916-2.481-2.504-2.491zm1.504 5.621c0 .679-.442 1.271-1.075 1.441-.414.11-1.102.209-1.925.285v-4.837c.016-1.023.494-1.502 1.496-1.509 1.036.006 1.485.458 1.504 1.5v3.121zm.964 4.194c.102.256-.022.547-.279.649-.094.038-2.215.874-4.546 1.013-.119.89-.139 1.529-.139 1.537-.008.271-.23.486-.5.486-.282 0-.509-.233-.5-.514.001-.037.028-.907.209-2.068.038-.24.241-.417.483-.423 2.307-.048 4.6-.951 4.623-.959.256-.103.547.023.649.279zm-2.461-11.315c1.265-.007 1.974-.714 1.997-1.991v-.018c-.022-1.258-.75-1.983-2.003-1.991-1.229.008-1.975.752-1.997 2.009.024 1.276.733 1.983 2.003 1.991zm-.006-3c.706.004.988.285 1.003 1-.015.715-.297.996-.997 1-.718-.004-.989-.278-1.003-.991.012-.703.312-1.004.997-1.009zm-5.154 8.412c-.013-.004-1.276-.412-3.343-.412s-3.333.401-3.346.405c-.261.083-.543-.059-.629-.321-.085-.262.058-.544.32-.629.057-.019 1.414-.454 3.655-.454s3.602.444 3.658.463c.262.087.403.37.316.631-.086.264-.377.404-.631.317zm-6.527-5.834c.154.061.605.238 1.624.342.403.403 1.196 1.065 1.6 1.079.317-.025 1.091-.65 1.517-1.079 1.02-.104 1.469-.282 1.601-.337.147-.037.284-.168.347-.306.324-.701.496-1.662.496-2.777s-.17-2.071-.487-2.76c-.052-.152-.214-.281-.368-.328-1.754-.531-4.523-.536-6.303.004-.149.036-.287.17-.351.31-.321.703-.491 1.663-.491 2.774s.169 2.072.485 2.761c.055.161.166.276.331.317zm.515-5.262c1.495-.404 3.729-.424 5.342.002.212.557.328 1.321.328 2.182 0 .847-.112 1.599-.339 2.201-.339.109-.803.19-1.382.241-.127.011-.245.07-.33.165-.303.34-.715.655-.953.818-.242-.165-.652-.484-.951-.819-.084-.095-.202-.153-.329-.165-.579-.051-1.043-.131-1.384-.241-.215-.557-.333-1.33-.333-2.201 0-.835.109-1.581.331-2.184z" />
</svg>