<svg t="1751478991261" class="icon" viewBox="0 0 1024 1024" version="1.1" xmlns="http://www.w3.org/2000/svg"
    p-id="13742" width="200" height="200">
    <path
        d="M213.20576 515.498667c0-33.493333 5.632-65.621333 15.616-95.701334L53.46176 287.146667A511.061333 511.061333 0 0 0 0.000427 515.498667c0 82.048 19.2 159.402667 53.333333 228.138666l175.36-132.864a302.08 302.08 0 0 1-15.488-95.274666z"
        fill="#FBBC05" p-id="13743"></path>
    <path
        d="M521.259093 210.944a303.36 303.36 0 0 1 191.872 67.882667l151.594667-149.888c-92.373333-79.616-210.816-128.853333-343.466667-128.853334C315.264427 0.085333 138.240427 116.736 53.46176 287.146667L228.94976 419.84c40.405333-121.514667 155.605333-208.896 292.352-208.896"
        fill="#EA4335" p-id="13744"></path>
    <path
        d="M523.47776 813.226667c-137.472 0-253.226667-86.784-293.888-207.573334l-176.256 131.84c85.162667 169.386667 263.082667 285.269333 470.144 285.269334 127.701333 0 249.685333-44.373333 341.248-127.616l-167.338667-126.72c-47.189333 29.141333-106.666667 44.8-173.952 44.8"
        fill="#34A853" p-id="13745"></path>
    <path
        d="M1023.44576 510.634667c0-30.293333-4.778667-62.890667-11.946667-93.141334h-488.106666v197.888h280.96c-13.994667 67.498667-52.224 119.338667-106.965334 153.088l167.338667 126.677334c96.170667-87.381333 158.72-217.6 158.72-384.512z"
        fill="#4285F4" p-id="13746"></path>
</svg>