<?xml version="1.0" standalone="no"?><!DOCTYPE svg PUBLIC "-//W3C//DTD SVG 1.1//EN" "http://www.w3.org/Graphics/SVG/1.1/DTD/svg11.dtd"><svg t="1751543270867" class="icon" viewBox="0 0 1024 1024" version="1.1" xmlns="http://www.w3.org/2000/svg" p-id="5582" xmlns:xlink="http://www.w3.org/1999/xlink" width="200" height="200"><path d="M675.585062 743.568465l84.979253-395.153527c4.248963-16.995851 0-29.742739-4.248962-33.991701-8.497925-8.497925-16.995851-8.497925-29.742739-4.248963L233.692946 497.128631c-12.746888 4.248963-16.995851 12.746888-21.244813 16.99585s-4.248963 8.497925 0 16.995851c4.248963 4.248963 8.497925 8.497925 16.99585 12.746888l127.46888 38.240664 293.178423-182.705394c8.497925-4.248963 12.746888-8.497925 16.995851-4.248963 4.248963 0 0 4.248963-4.248963 8.497925l-237.941908 212.448133-8.497926 131.717842c8.497925 0 16.995851-4.248963 25.493776-12.746888l59.485477-59.485477 127.46888 93.477179c25.493776 8.497925 42.489627 4.248963 46.738589-25.493776zM1019.751037 509.875519c0 67.983402-12.746888 135.966805-42.489626 199.701244-25.493776 63.73444-63.73444 118.970954-110.473029 161.460581s-97.726141 80.73029-161.460581 110.473029c-63.73444 25.493776-127.46888 42.489627-199.701245 42.489627s-135.966805-12.746888-199.701245-42.489627c-63.73444-25.493776-118.970954-63.73444-161.460581-110.473029S67.983402 769.062241 42.489627 709.576763c-25.493776-63.73444-42.489627-127.46888-42.489627-199.701244s12.746888-135.966805 42.489627-199.701245 63.73444-118.970954 110.473029-161.460581S250.688797 67.983402 310.174274 42.489627s127.46888-42.489627 199.701245-42.489627 135.966805 12.746888 199.701244 42.489627c63.73444 25.493776 118.970954 63.73444 161.460581 110.473029s80.73029 97.726141 110.473029 161.460581c25.493776 59.485477 38.240664 127.46888 38.240664 195.452282z" fill="#41AADE" p-id="5583"></path><path d="M416.39834 743.568465c-16.995851 0-12.746888-4.248963-21.244813-16.995851l-42.489627-144.46473L679.834025 373.908714" fill="#C8DAEA" p-id="5584"></path></svg>