<svg t="1751545462683" class="icon" viewBox="0 0 1024 1024" version="1.1" xmlns="http://www.w3.org/2000/svg" p-id="5576"
    data-spm-anchor-id="a313x.search_index.0.i2.79ba3a81WUwqsU" width="200" height="200">
    <path
        d="M985.6 313.6c-25.6-64-64-115.2-108.8-166.4C832 102.4 774.4 64 710.4 38.4 646.4 12.8 582.4 0 512 0S377.6 12.8 313.6 38.4c-64 25.6-115.2 64-166.4 108.8-44.8 51.2-76.8 102.4-108.8 166.4-25.6 64-38.4 128-38.4 198.4s12.8 134.4 38.4 198.4c25.6 64 64 115.2 108.8 166.4 44.8 44.8 102.4 83.2 166.4 108.8 64 25.6 128 38.4 198.4 38.4s134.4-12.8 198.4-38.4c64-25.6 115.2-64 166.4-108.8 44.8-44.8 83.2-102.4 108.8-166.4 25.6-64 38.4-128 38.4-198.4s-12.8-134.4-38.4-198.4z m-224 38.4l-83.2 396.8c-6.4 25.6-19.2 38.4-44.8 19.2l-128-96-64 57.6c-6.4 6.4-19.2 12.8-25.6 12.8l6.4-128 236.8-211.2c6.4-6.4 6.4-6.4 0-6.4s-12.8 0-19.2 6.4L352 582.4l-128-38.4c-6.4 0-12.8-6.4-19.2-12.8v-12.8c12.8-6.4 19.2-12.8 32-19.2l492.8-192c12.8-6.4 19.2-6.4 32 6.4 6.4 6.4 6.4 19.2 0 38.4z"
        fill="#399DD8" p-id="5577" data-spm-anchor-id="a313x.search_index.0.i3.79ba3a81WUwqsU" class=""></path>
</svg>